<svg xmlns="http://www.w3.org/2000/svg" width="16" height="16" viewBox="0 0 16 16"><path d="M13.76 2.043c.402.196.75.476 1.008.82.54.723.69 1.71.45 2.93-.242 1.234-.787 2.276-1.58 3.03-.145.153-.3.294-.466.424-.85.67-1.922 1.022-3.102 1.022H6.32L5.31 15H3.24l.16-.724h.72l1.01-4.73h2.94c2.817 0 5.172-1.736 5.802-4.686.714-3.34-1.68-4.86-3.74-4.86H3.11L0 14.277h2.375L2.002 16h4.12l1.01-4.73h2.94c2.817 0 5.172-1.736 5.802-4.686.527-2.464-.638-3.936-2.11-4.54zm-7.16.865h2.017c1.01 0 1.68.868 1.387 1.952C9.752 5.945 8.7 6.813 7.65 6.813H5.716L6.6 2.908z"/></svg>